<svg width="14" height="14" viewBox="0 0 14 14" fill="none" xmlns="http://www.w3.org/2000/svg">
<path d="M6.89661 0.30957C7.0268 1.96144 7.17327 4.61012 8.25146 5.68831C9.32965 6.7665 11.9173 6.86008 13.5488 6.95773H13.5407C11.9092 7.05537 9.32965 7.14895 8.25146 8.22714C7.30754 9.17106 7.07969 11.3193 6.94543 12.9468L6.89254 13.6059L6.83964 12.9468C6.70944 11.3193 6.48161 9.17106 5.53768 8.22714C4.4595 7.14895 1.87998 7.05537 0.248456 6.95773H0.240311C1.87183 6.86008 4.45543 6.7665 5.53768 5.68831C6.61587 4.61012 6.76234 1.96144 6.89254 0.30957L6.89661 0.30957Z" fill="#FF4F00"/>
</svg>
