<?xml version="1.0" encoding="UTF-8"?>
<svg id="Layer_1" xmlns="http://www.w3.org/2000/svg" version="1.1" viewBox="0 0 644.6 50">
  <!-- Generator: Adobe Illustrator 29.4.0, SVG Export Plug-In . SVG Version: 2.1.0 Build 152)  -->
  <defs>
    <style>
      .st0 {
        fill: #fff;
      }
    </style>
  </defs>
  <path class="st0" d="M220.2,0c3,0,5.6,1.1,7.8,3.2,2.1,2.1,3.2,4.6,3.2,7.6h-7.3c0-2-1.7-3.6-3.7-3.6h-13.2c-2,0-3.6,1.6-3.6,3.6v.6c.2.5.5.9.8,1.2.7.8,2.1,1.5,3.2,1.6h0,0,0,0c-1.1,0-2.5.8-3.2,1.6-.3.3-.6.8-.8,1.2v22.2c0,1.9,1.6,3.6,3.6,3.6h13.2c2,0,3.7-1.6,3.7-3.6h7.3c0,2.9-1.1,5.5-3.2,7.6-2.1,2.1-4.8,3.1-7.8,3.1h-13.2c-3,0-5.6-1.1-7.8-3.1-2.1-2.1-3.1-4.6-3.1-7.6v-22.6c.2-.3.4-.6.6-.8.7-.8,2.1-1.5,3.2-1.6h0,0,0,0c-1.1,0-2.1-.4-3.2-1.3-.3-.2-.4-.4-.6-.7v-1.5c0-2.9,1-5.5,3.1-7.6C201.3,1.1,204,0,207,0h13.2ZM256.1,0c2.1,0,2.8.6,3.7,2.6l4.5,9.3c.4.4.8.8,1.2,1.1,1.1.9,2.3,1.3,4,1.3-1.1,0-2.5.6-2.8,1.3-.1.2-.2.5-.2.7l3.1,6.3c.3.6.4,2.1.4,4.4v23h-7.3v-10.7h-20.5v10.7h-7.3v-23c0-2.3.1-3.7.4-4.4l3-6.1c.3-.4.7-.7,1-.9,1-.8,2.2-1.3,3.8-1.3h.2c-1.1,0-2.3-.9-2.6-1.7,0-.2-.1-.4-.2-.6l4.5-9.4C245.8.6,246.6,0,248.7,0h7.3ZM297.8,0c3,0,5.6,1.1,7.8,3.1,2.1,2.1,3.2,4.6,3.2,7.5v28.6c0,2.9-1.1,5.5-3.2,7.6-2.1,2.1-4.8,3.1-7.8,3.1h-24.1V16.2c.1-.1.2-.3.3-.4.7-.8,2.1-1.5,3.2-1.6h0,0,0,0c-1.1,0-2.5-.8-3.2-1.6-.1-.1-.2-.3-.3-.4V0h24.1ZM347.5,7.1h-27.8v4.6c.2.3.4.6.6.9.7.8,2.1,1.5,3.2,1.6h0,0,0,0c-1.1,0-2.5.8-3.2,1.6-.2.2-.4.5-.6.9v4.7h27.8v7.1h-27.8v14.3h27.8v7.1h-35.1V16.3c.1-.2.2-.3.4-.5.7-.8,2.1-1.5,3.2-1.6h0,0,0,0c-1.1,0-2.5-.8-3.2-1.6-.1-.1-.3-.3-.4-.5V0h35.1v7.1ZM386.3,7.1h-13.9v4.4c.2.4.5.8.7,1.1.7.8,2.1,1.5,3.2,1.6h0,0,0,0c-1.1,0-2.5.8-3.2,1.6-.3.3-.5.7-.7,1.1v33.1h-7.3V16.5c.2-.2.3-.5.5-.7.7-.8,2.1-1.5,3.2-1.6h0,0,0,0c-1.1,0-2.5-.8-3.2-1.6-.2-.2-.4-.4-.5-.7v-4.8h-13.9V0h35.1v7.1ZM22.2,0C25.8,0,28.8,1.2,31.3,3.6c2.5,2.4,3.7,5.3,3.7,8.8h-7.2c0-2.9-2.5-5.3-5.5-5.3h-9.5c-2.6,0-4.8,1.8-5.4,4.3.2.4.5.9.8,1.2.7.8,2.1,1.5,3.2,1.6-1,0-2.3.7-3,1.4,2.2,2.9,7.5,4.8,12.8,7.1,4.8,2.2,9.1,4.1,11.8,8.1,1.4,1.9,2,4.1,2,6.6s-1.2,6.4-3.8,8.9c-2.5,2.4-5.5,3.6-9.1,3.6h-9.4c-3.6,0-6.6-1.2-9.1-3.6-2.5-2.5-3.7-5.4-3.7-8.8h7.3c0,2.9,2.6,5.3,5.6,5.3h9.4c3,0,5.5-2.4,5.5-5.4s-3.1-5.6-7.2-7.3c-4.1-1.7-9.2-4-13.4-6.3-2.6-1.4-4.8-3.6-6-6.3-.2-1,0-1.7.5-2.2.7-.8,1.5-1,2.6-1.1h0,0,0,0c-1.1,0-2.6-.5-3.4-1.3-.6-.6-.7-1.4-.7-2.8.5-2.4,1.6-4.6,3.5-6.4C6.2,1.2,9.2,0,12.8,0h9.4ZM61,0c3.6,0,6.6,1.2,9.1,3.6,1.8,1.8,3,3.9,3.5,6.3h0s0,0,0,.2c0,.1,0,.3,0,.4.2.9.6,1.5,1.1,2.1.7.8,1.9,1.5,2.9,1.6h0,0,0,0c-1,0-2.2.8-2.9,1.6-.5.6-.9,1.2-1.1,1.9-.3,2.8-1.5,5.2-3.6,7.3-2.5,2.4-5.5,3.6-9.1,3.6h-15v21.4h-7.3V16.8c.2-.4.5-.8.7-1.1.7-.8,2.1-1.5,3.2-1.6-1.1,0-2.5-.8-3.2-1.6-.3-.3-.5-.7-.7-1.1V0h22.3ZM98.7,0c2.1,0,2.8.6,3.7,2.6l3.9,8.1-.5-1.3c.6,1.3,1.6,2.6,2.6,3.5,1.1.9,2.3,1.3,4,1.3h-4.3,4.3c-1.1,0-2.4.6-2.8,1.3-.4.7.2,2,.8,3.3l-.2-.4,2,4.2c.3.6.4,2.1.4,4.3v23h-7.3v-10.7h-20.5v10.7h-7.3v-23c0-2.3.1-3.7.4-4.3l2.2-4.5c.6-1,1.5-1.9,2.3-2.6,1-.8,2.2-1.3,3.8-1.3h.1c-1.1,0-2.3-.9-2.6-1.7-.3-.5-.3-1.2,0-1.9l3.9-8C88.4.6,89.2,0,91.4,0h7.3ZM140.3,0c3,0,5.6,1.1,7.7,3.2,2.1,2.1,3.2,4.6,3.2,7.6h-7.3c0-2-1.7-3.6-3.7-3.6h-13.2c-1.9,0-3.5,1.5-3.6,3.5.2.8.6,1.5,1.1,2,.7.8,2.1,1.5,3.2,1.6-1.1,0-2.5.8-3.2,1.6-.5.5-.9,1.2-1.1,2v21.5c0,1.9,1.6,3.6,3.6,3.6h13.2c2,0,3.7-1.6,3.7-3.6h7.3c0,2.9-1.1,5.5-3.2,7.6-2.1,2.1-4.8,3.1-7.7,3.1h-13.2c-3,0-5.6-1.1-7.7-3.1-2.1-2.1-3.1-4.6-3.1-7.6v-22.1c.2-.5.5-1,.9-1.3.7-.8,2.1-1.5,3.2-1.6-1.1,0-2.5-.8-3.2-1.6-.3-.4-.6-.8-.9-1.3v-.4c0-2.9,1-5.5,3.1-7.6C121.5,1.1,124.1,0,127.1,0h13.2ZM190,7.1h-27.8v3.2c.2.8.6,1.6,1.2,2.2.7.8,2.1,1.5,3.2,1.6-1.1,0-2.5.8-3.2,1.6-.5.6-.9,1.3-1.2,2.2v3.5h27.8v7.1h-27.8v14.3h27.8v7.1h-35.1V17.2c.2-.6.5-1.1.9-1.5.7-.8,2.1-1.5,3.2-1.6-1.1,0-2.5-.8-3.2-1.6-.4-.4-.7-.9-.9-1.5V0h35.1v7.1ZM280.9,11.9c.2.3.4.5.6.7.7.8,2.1,1.5,3.2,1.6h0,0,0,0c-1.1,0-2.5.8-3.2,1.6-.2.2-.4.5-.6.7v26.3h16.8c2,0,3.7-1.6,3.7-3.6V10.7c0-2-1.6-3.6-3.7-3.6h-16.8v4.7ZM248.3,12.1c0,.1,0,.3.1.4.4.7,1.5,1.6,2.6,1.7h-.2c-1.6,0-2.8.5-3.8,1.3-.3.2-.5.5-.8.7l-4.2,8.7v7.2h20.5v-7.2l-4.3-9c0-.2,0-.3,0-.4.4-.7,1.7-1.2,2.8-1.3h0,0s0,0,0,0h-.3c-1.6,0-2.7-.5-3.7-1.3-.2-.2-.5-.4-.7-.7l-2.4-5.1h-3.4l-2.4,5h0ZM91.5,11.1c0,.6,0,1.1.2,1.4.4.7,1.5,1.6,2.6,1.7h-.1c-1.6,0-2.8.4-3.8,1.3-.7.5-1.4,1.3-1.9,2l-3.6,7.4v7.2h20.5v-7.2l-3.1-6.6.3.5c-.6-1.3-1.3-2.6-.9-3.3.4-.7,1.7-1.2,2.8-1.3-1.7,0-2.9-.4-4-1.3-.7-.6-1.3-1.4-1.8-2.2l-1.7-3.5h-3.4l-1.9,3.9h0ZM46.1,11c.2.6.6,1.2,1,1.6.7.8,2.1,1.5,3.2,1.6-1.1,0-2.5.8-3.2,1.6-.4.4-.7,1-1,1.6v4h15c2.6,0,4.8-1.8,5.4-4.2.3-.7.7-1.1,1.3-1.7.9-.8,2.1-1.3,3.2-1.3h0c-1.1,0-2.3-.6-3.2-1.3-.7-.5-1.1-1-1.4-1.7,0-.3-.2-.5-.3-.8,0,0,0,0,0,0h0c-.9-1.8-2.8-3.2-5-3.2h-15v3.8h0Z"/>
  <path class="st0" d="M431.8,0c3.6,0,6.6,1.2,9.1,3.6,2.5,2.4,3.7,5.3,3.7,8.8h-7.2c0-2.9-2.5-5.3-5.5-5.3h-9.5c-2.6,0-4.8,1.8-5.4,4.3.2.4.5.9.8,1.2.7.8,2.1,1.5,3.2,1.6-1,0-2.3.7-3,1.4,2.2,2.9,7.5,4.8,12.8,7.1,4.8,2.2,9.1,4.1,11.8,8.1,1.4,1.9,2,4.1,2,6.6s-1.2,6.4-3.8,8.9c-2.5,2.4-5.5,3.6-9.1,3.6h-9.4c-3.6,0-6.6-1.2-9.1-3.6-2.5-2.5-3.7-5.4-3.7-8.8h7.3c0,2.9,2.6,5.3,5.6,5.3h9.4c3,0,5.5-2.4,5.5-5.4s-3.1-5.6-7.2-7.3c-4.1-1.7-9.2-4-13.4-6.3-2.6-1.4-4.8-3.6-6-6.3-.2-1,0-1.7.5-2.2.7-.8,1.5-1,2.6-1.1h0,0,0,0c-1.1,0-2.6-.5-3.4-1.3-.6-.6-.7-1.4-.7-2.8.5-2.4,1.6-4.6,3.5-6.4C415.8,1.2,418.8,0,422.3,0h9.4,0Z"/>
  <path class="st0" d="M482.9,7.1h-13.9v4.4c.2.4.5.8.7,1.1.7.8,2.1,1.5,3.2,1.6h0,0,0,0c-1.1,0-2.5.8-3.2,1.6-.3.3-.5.7-.7,1.1v33.1h-7.3V16.5c.2-.2.3-.5.5-.7.7-.8,2.1-1.5,3.2-1.6h0,0,0,0c-1.1,0-2.5-.8-3.2-1.6-.2-.2-.4-.4-.5-.7v-4.8h-13.9V0h35.1v7.1Z"/>
  <path class="st0" d="M494.6,16.5h-7.3v13.3h7.3v-13.3Z"/>
  <path class="st0" d="M515.1,25.1v14.1c0,1.9-1.6,3.6-3.6,3.6h-13.3c-2,0-3.6-1.6-3.6-3.6v-14.1h-7.3v14.1c0,2.9,1,5.5,3.1,7.6,2.1,2.1,4.8,3.1,7.8,3.1h13.3c3,0,5.6-1.1,7.8-3.1,2.1-2.1,3.1-4.6,3.1-7.6v-14.1h-7.3,0Z"/>
  <path class="st0" d="M498.3,14.2h0c-1.1,0-2.5-.8-3.2-1.6-.2-.2-.3-.4-.5-.7V0h-7.3v12c.2.2.3.5.5.7.7.8,2.1,1.5,3.2,1.6h0,0,0,0c-1.1,0-2.5.8-3.2,1.6-.2.2-.4.4-.5.7h7.3c.2-.2.3-.5.5-.7.7-.8,2.1-1.5,3.2-1.6h0,0,0Z"/>
  <path class="st0" d="M559.7,3.1c-2.1-2.1-4.8-3.1-7.8-3.1h-24.1v12.2c.1.1.2.3.3.4.7.8,2.1,1.5,3.2,1.6h0,0,0,0c-1.1,0-2.5.8-3.2,1.6-.1.1-.2.3-.3.4v33.7h24.1c3,0,5.6-1.1,7.8-3.1,2.1-2.1,3.2-4.6,3.2-7.6V10.6c0-2.9-1.1-5.4-3.2-7.5ZM555.6,39.2c0,1.9-1.6,3.6-3.7,3.6h-16.8v-26.3c.2-.3.4-.5.6-.7.7-.8,2.1-1.5,3.2-1.6h0,0,0,0c-1.1,0-2.5-.8-3.2-1.6-.2-.2-.4-.5-.6-.7v-4.7h16.8c2,0,3.7,1.6,3.7,3.6v28.5h0Z"/>
  <path class="st0" d="M522.4,0h-7.3v29.7h7.3V0Z"/>
  <path class="st0" d="M602.1,7.1h-13.9v4.4c.2.4.5.8.7,1.1.7.8,2.1,1.5,3.2,1.6h0,0,0,0c-1.1,0-2.5.8-3.2,1.6-.3.3-.5.7-.7,1.1v33.1h-7.3V16.5c.2-.2.3-.5.5-.7.7-.8,2.1-1.5,3.2-1.6h0,0,0,0c-1.1,0-2.5-.8-3.2-1.6-.2-.2-.4-.4-.5-.7v-4.8h-13.9V0h35.1v7.1Z"/>
  <path class="st0" d="M567,42.8v7.1h35.1v-7.1h-35.1Z"/>
  <path class="st0" d="M633.6,16.5v22.7c0,1.9-1.7,3.6-3.7,3.6h-13.2c-2,0-3.6-1.6-3.6-3.6v-21.5c.2-.8.6-1.5,1.1-2,.7-.8,2.1-1.5,3.2-1.6-1.1,0-2.5-.8-3.2-1.6-.5-.5-.9-1.2-1.1-2,0-1.9,1.7-3.5,3.6-3.5h13.2c2,0,3.7,1.6,3.7,3.6v1.2h7.3v-1.2c0-2.9-1.1-5.5-3.2-7.6-2.1-2.1-4.7-3.2-7.7-3.2h-13.2c-3,0-5.6,1.1-7.7,3.2-2.1,2.1-3.1,4.6-3.1,7.6v.4c.2.5.5,1,.9,1.3.7.8,2.1,1.5,3.2,1.6-1.1,0-2.5.8-3.2,1.6-.3.4-.6.8-.9,1.3v22.1c0,2.9,1,5.5,3.1,7.6,2.1,2.1,4.8,3.1,7.7,3.1h13.2c3,0,5.6-1.1,7.7-3.1,2.1-2.1,3.2-4.6,3.2-7.6v-22.7h-7.3Z"/>
  <path class="st0" d="M644.6,14.2h0c-1.1,0-2.5-.8-3.2-1.6-.2-.2-.3-.4-.5-.7h-7.3c.2.2.3.5.5.7.7.8,2.1,1.5,3.2,1.6h0,0,0,0c-1.1,0-2.5.8-3.2,1.6-.2.2-.4.4-.5.7h7.3c.2-.2.3-.5.5-.7.7-.8,2.1-1.5,3.2-1.6h0,0,0Z"/>
</svg>